STARTFONT 2.1
COMMENT $XConsortium: luBS08.bdf,v 1.7 94/04/02 16:23:01 gildea Exp $
COMMENT  (c) Copyright Bigelow & Holmes 1986, 1985. Lucida is a registered
COMMENT  trademark of Bigelow & Holmes. See LEGAL NOTICE file for terms 
COMMENT  of the license. 
COMMENT  
COMMENT  Translation to ISO8859-2 by Cub Soft;  Petr.Kolar@vslib.cz
COMMENT  
FONT -B&H-Lucida-Bold-R-Normal-Sans-11-80-100-100-P-70-ISO8859-2
SIZE 8 100 100
FONTBOUNDINGBOX 22 12 -8 -2
STARTPROPERTIES 20
COMMENT Begin LogicalFontDescription
FONTNAME_REGISTRY ""
FOUNDRY "B&H"
FAMILY_NAME "Lucida"
WEIGHT_NAME "Bold"
SLANT "R"
SETWIDTH_NAME "Normal"
ADD_STYLE_NAME "Sans"
PIXEL_SIZE 11
POINT_SIZE 80
RESOLUTION_X 100
RESOLUTION_Y 100
SPACING "P"
AVERAGE_WIDTH 70
CHARSET_REGISTRY "ISO8859"
CHARSET_ENCODING "2"
COMMENT END LogicalFontDescription
FONT_ASCENT 10
FONT_DESCENT 3
DEFAULT_CHAR 0
COPYRIGHT "Copyright Bigelow & Holmes 1986, 1985., Copyright 1996 Cub Soft"
FACE_NAME "Lucida Sans Bold"
ENDPROPERTIES
CHARS 191
STARTCHAR space
ENCODING 32
SWIDTH 343 0
DWIDTH 4 0
BBX 1 1 0 0
BITMAP
00
ENDCHAR
STARTCHAR exclam
ENCODING 33
SWIDTH 265 0
DWIDTH 4 0
BBX 2 8 1 0
BITMAP
c0
c0
c0
c0
80
80
00
c0
ENDCHAR
STARTCHAR quotedbl
ENCODING 34
SWIDTH 530 0
DWIDTH 6 0
BBX 5 4 0 4
BITMAP
d8
d8
90
90
ENDCHAR
STARTCHAR numbersign
ENCODING 35
SWIDTH 687 0
DWIDTH 8 0
BBX 7 8 0 0
BITMAP
14
24
7e
28
28
fc
48
50
ENDCHAR
STARTCHAR dollar
ENCODING 36
SWIDTH 687 0
DWIDTH 8 0
BBX 5 11 1 -1
BITMAP
20
20
78
e8
e0
70
38
38
b8
f0
20
ENDCHAR
STARTCHAR percent
ENCODING 37
SWIDTH 898 0
DWIDTH 10 0
BBX 9 8 0 0
BITMAP
4100
a200
a400
4800
0900
1280
2280
6100
ENDCHAR
STARTCHAR ampersand
ENCODING 38
SWIDTH 792 0
DWIDTH 9 0
BBX 8 8 0 0
BITMAP
38
64
7c
79
f9
de
ce
7f
ENDCHAR
STARTCHAR apostrophe
ENCODING 39
SWIDTH 265 0
DWIDTH 3 0
BBX 2 4 0 4
BITMAP
c0
c0
40
80
ENDCHAR
STARTCHAR parenleft
ENCODING 40
SWIDTH 386 0
DWIDTH 4 0
BBX 3 10 1 -2
BITMAP
20
60
40
c0
c0
c0
c0
40
60
20
ENDCHAR
STARTCHAR parenright
ENCODING 41
SWIDTH 386 0
DWIDTH 4 0
BBX 3 10 1 -2
BITMAP
80
c0
40
60
60
60
60
40
c0
80
ENDCHAR
STARTCHAR asterisk
ENCODING 42
SWIDTH 464 0
DWIDTH 5 0
BBX 4 4 1 4
BITMAP
60
f0
e0
70
ENDCHAR
STARTCHAR plus
ENCODING 43
SWIDTH 687 0
DWIDTH 8 0
BBX 7 7 0 0
BITMAP
10
10
10
fe
10
10
10
ENDCHAR
STARTCHAR comma
ENCODING 44
SWIDTH 343 0
DWIDTH 4 0
BBX 2 4 1 -2
BITMAP
c0
c0
40
80
ENDCHAR
STARTCHAR minus
ENCODING 45
SWIDTH 687 0
DWIDTH 8 0
BBX 6 1 1 3
BITMAP
fc
ENDCHAR
STARTCHAR period
ENCODING 46
SWIDTH 343 0
DWIDTH 4 0
BBX 2 2 1 0
BITMAP
c0
c0
ENDCHAR
STARTCHAR slash
ENCODING 47
SWIDTH 596 0
DWIDTH 7 0
BBX 6 10 0 -2
BITMAP
04
08
08
10
10
20
20
40
40
80
ENDCHAR
STARTCHAR zero
ENCODING 48
SWIDTH 687 0
DWIDTH 8 0
BBX 7 8 0 0
BITMAP
38
44
c6
c6
c6
c6
44
38
ENDCHAR
STARTCHAR one
ENCODING 49
SWIDTH 687 0
DWIDTH 8 0
BBX 3 8 2 0
BITMAP
e0
60
60
60
60
60
60
60
ENDCHAR
STARTCHAR two
ENCODING 50
SWIDTH 687 0
DWIDTH 8 0
BBX 6 8 1 0
BITMAP
f8
8c
0c
0c
18
20
e0
fc
ENDCHAR
STARTCHAR three
ENCODING 51
SWIDTH 687 0
DWIDTH 8 0
BBX 6 8 1 0
BITMAP
f8
0c
0c
78
18
0c
0c
f8
ENDCHAR
STARTCHAR four
ENCODING 52
SWIDTH 687 0
DWIDTH 8 0
BBX 7 8 0 0
BITMAP
0c
1c
2c
6c
cc
fe
0c
0c
ENDCHAR
STARTCHAR five
ENCODING 53
SWIDTH 687 0
DWIDTH 8 0
BBX 5 8 2 0
BITMAP
f8
80
80
f0
38
18
18
f0
ENDCHAR
STARTCHAR six
ENCODING 54
SWIDTH 687 0
DWIDTH 8 0
BBX 7 8 0 0
BITMAP
3e
60
c0
fc
c6
c6
46
3c
ENDCHAR
STARTCHAR seven
ENCODING 55
SWIDTH 687 0
DWIDTH 8 0
BBX 6 8 1 0
BITMAP
fc
0c
18
10
30
60
60
e0
ENDCHAR
STARTCHAR eight
ENCODING 56
SWIDTH 687 0
DWIDTH 8 0
BBX 6 8 1 0
BITMAP
78
cc
ec
78
58
cc
cc
78
ENDCHAR
STARTCHAR nine
ENCODING 57
SWIDTH 687 0
DWIDTH 8 0
BBX 7 8 0 0
BITMAP
78
c4
c6
c6
7e
06
0c
f8
ENDCHAR
STARTCHAR colon
ENCODING 58
SWIDTH 343 0
DWIDTH 4 0
BBX 2 6 1 0
BITMAP
c0
c0
00
00
c0
c0
ENDCHAR
STARTCHAR semicolon
ENCODING 59
SWIDTH 343 0
DWIDTH 4 0
BBX 2 8 1 -2
BITMAP
c0
c0
00
00
c0
c0
40
80
ENDCHAR
STARTCHAR less
ENCODING 60
SWIDTH 687 0
DWIDTH 8 0
BBX 6 7 1 0
BITMAP
04
0c
30
c0
30
0c
04
ENDCHAR
STARTCHAR equal
ENCODING 61
SWIDTH 687 0
DWIDTH 8 0
BBX 6 4 1 1
BITMAP
fc
00
00
fc
ENDCHAR
STARTCHAR greater
ENCODING 62
SWIDTH 687 0
DWIDTH 8 0
BBX 6 7 1 0
BITMAP
80
c0
30
0c
30
c0
80
ENDCHAR
STARTCHAR question
ENCODING 63
SWIDTH 572 0
DWIDTH 6 0
BBX 5 8 1 0
BITMAP
f0
98
18
30
60
60
00
60
ENDCHAR
STARTCHAR at
ENCODING 64
SWIDTH 833 0
DWIDTH 9 0
BBX 9 8 1 0
BITMAP
1e00
2180
5e80
a480
ac80
b700
c000
3c00
ENDCHAR
STARTCHAR A
ENCODING 65
SWIDTH 773 0
DWIDTH 8 0
BBX 8 8 0 0
BITMAP
18
1c
2c
2c
66
7e
46
83
ENDCHAR
STARTCHAR B
ENCODING 66
SWIDTH 669 0
DWIDTH 7 0
BBX 6 8 1 0
BITMAP
f8
cc
cc
f8
d8
cc
cc
f8
ENDCHAR
STARTCHAR C
ENCODING 67
SWIDTH 726 0
DWIDTH 8 0
BBX 7 8 1 0
BITMAP
3e
60
c0
c0
c0
c0
60
3e
ENDCHAR
STARTCHAR D
ENCODING 68
SWIDTH 819 0
DWIDTH 9 0
BBX 8 8 1 0
BITMAP
fc
c6
c3
c3
c3
c3
c6
fc
ENDCHAR
STARTCHAR E
ENCODING 69
SWIDTH 645 0
DWIDTH 7 0
BBX 6 8 1 0
BITMAP
fc
c0
c0
f8
c0
c0
c0
fc
ENDCHAR
STARTCHAR F
ENCODING 70
SWIDTH 602 0
DWIDTH 7 0
BBX 5 8 1 0
BITMAP
f8
c0
c0
f0
c0
c0
c0
c0
ENDCHAR
STARTCHAR G
ENCODING 71
SWIDTH 759 0
DWIDTH 8 0
BBX 7 8 0 0
BITMAP
3e
60
c0
c0
c6
c6
66
3e
ENDCHAR
STARTCHAR H
ENCODING 72
SWIDTH 813 0
DWIDTH 9 0
BBX 7 8 1 0
BITMAP
c6
c6
c6
fe
c6
c6
c6
c6
ENDCHAR
STARTCHAR I
ENCODING 73
SWIDTH 361 0
DWIDTH 4 0
BBX 2 8 1 0
BITMAP
c0
c0
c0
c0
c0
c0
c0
c0
ENDCHAR
STARTCHAR J
ENCODING 74
SWIDTH 501 0
DWIDTH 6 0
BBX 4 10 0 -2
BITMAP
30
30
30
30
30
30
30
30
30
e0
ENDCHAR
STARTCHAR K
ENCODING 75
SWIDTH 753 0
DWIDTH 8 0
BBX 7 8 1 0
BITMAP
c4
c8
d0
f0
f8
d8
cc
ce
ENDCHAR
STARTCHAR L
ENCODING 76
SWIDTH 620 0
DWIDTH 7 0
BBX 6 8 1 0
BITMAP
c0
c0
c0
c0
c0
c0
c0
fc
ENDCHAR
STARTCHAR M
ENCODING 77
SWIDTH 940 0
DWIDTH 10 0
BBX 8 8 1 0
BITMAP
e3
e7
e7
f7
bb
bb
bb
83
ENDCHAR
STARTCHAR N
ENCODING 78
SWIDTH 783 0
DWIDTH 9 0
BBX 7 8 1 0
BITMAP
c2
e2
f2
b2
9a
9e
8e
86
ENDCHAR
STARTCHAR O
ENCODING 79
SWIDTH 855 0
DWIDTH 9 0
BBX 9 8 0 0
BITMAP
3e00
6300
c180
c180
c180
c180
6300
3e00
ENDCHAR
STARTCHAR P
ENCODING 80
SWIDTH 657 0
DWIDTH 7 0
BBX 6 8 1 0
BITMAP
fc
cc
cc
dc
f8
c0
c0
c0
ENDCHAR
STARTCHAR Q
ENCODING 81
SWIDTH 855 0
DWIDTH 9 0
BBX 10 10 0 -2
BITMAP
3e00
6300
c180
c180
c180
c180
6300
3e00
07c0
0180
ENDCHAR
STARTCHAR R
ENCODING 82
SWIDTH 734 0
DWIDTH 8 0
BBX 7 8 1 0
BITMAP
f8
cc
cc
d8
f8
d8
cc
ce
ENDCHAR
STARTCHAR S
ENCODING 83
SWIDTH 594 0
DWIDTH 7 0
BBX 6 8 0 0
BITMAP
78
c0
e0
f0
3c
0c
0c
f8
ENDCHAR
STARTCHAR T
ENCODING 84
SWIDTH 735 0
DWIDTH 8 0
BBX 8 8 0 0
BITMAP
ff
18
18
18
18
18
18
18
ENDCHAR
STARTCHAR U
ENCODING 85
SWIDTH 783 0
DWIDTH 9 0
BBX 7 8 1 0
BITMAP
c6
c6
c6
c6
c6
c6
c6
7c
ENDCHAR
STARTCHAR V
ENCODING 86
SWIDTH 735 0
DWIDTH 8 0
BBX 8 8 0 0
BITMAP
c1
62
62
76
34
34
38
18
ENDCHAR
STARTCHAR W
ENCODING 87
SWIDTH 940 0
DWIDTH 10 0
BBX 10 8 0 0
BITMAP
cc40
ce80
6e80
6e80
6e80
7780
3300
3300
ENDCHAR
STARTCHAR X
ENCODING 88
SWIDTH 699 0
DWIDTH 8 0
BBX 7 8 0 0
BITMAP
e6
64
38
30
38
3c
4c
ce
ENDCHAR
STARTCHAR Y
ENCODING 89
SWIDTH 738 0
DWIDTH 8 0
BBX 8 8 0 0
BITMAP
e3
62
34
3c
18
18
18
18
ENDCHAR
STARTCHAR Z
ENCODING 90
SWIDTH 675 0
DWIDTH 7 0
BBX 6 8 1 0
BITMAP
fc
1c
18
38
70
60
e0
fc
ENDCHAR
STARTCHAR bracketleft
ENCODING 91
SWIDTH 386 0
DWIDTH 4 0
BBX 3 10 1 -2
BITMAP
e0
c0
c0
c0
c0
c0
c0
c0
c0
e0
ENDCHAR
STARTCHAR backslash
ENCODING 92
SWIDTH 596 0
DWIDTH 7 0
BBX 6 10 0 -2
BITMAP
80
40
40
20
20
10
10
08
08
04
ENDCHAR
STARTCHAR bracketright
ENCODING 93
SWIDTH 386 0
DWIDTH 4 0
BBX 3 10 1 -2
BITMAP
e0
60
60
60
60
60
60
60
60
e0
ENDCHAR
STARTCHAR asciicircum
ENCODING 94
SWIDTH 687 0
DWIDTH 8 0
BBX 6 7 1 1
BITMAP
10
30
30
30
48
48
84
ENDCHAR
STARTCHAR underscore
ENCODING 95
SWIDTH 500 0
DWIDTH 6 0
BBX 5 1 0 -1
BITMAP
f8
ENDCHAR
STARTCHAR grave
ENCODING 96
SWIDTH 675 0
DWIDTH 7 0
BBX 3 1 2 7
BITMAP
e0
ENDCHAR
STARTCHAR a
ENCODING 97
SWIDTH 623 0
DWIDTH 7 0
BBX 6 6 0 0
BITMAP
70
58
f8
d8
d8
6c
ENDCHAR
STARTCHAR b
ENCODING 98
SWIDTH 696 0
DWIDTH 8 0
BBX 6 8 1 0
BITMAP
c0
c0
f8
cc
cc
cc
cc
f8
ENDCHAR
STARTCHAR c
ENCODING 99
SWIDTH 545 0
DWIDTH 6 0
BBX 5 6 1 0
BITMAP
78
c0
c0
c0
e0
78
ENDCHAR
STARTCHAR d
ENCODING 100
SWIDTH 696 0
DWIDTH 8 0
BBX 6 8 1 0
BITMAP
0c
0c
7c
cc
cc
cc
cc
7c
ENDCHAR
STARTCHAR e
ENCODING 101
SWIDTH 614 0
DWIDTH 7 0
BBX 6 6 0 0
BITMAP
78
cc
cc
fc
c0
7c
ENDCHAR
STARTCHAR f
ENCODING 102
SWIDTH 461 0
DWIDTH 5 0
BBX 5 8 0 0
BITMAP
78
60
f0
60
60
60
60
60
ENDCHAR
STARTCHAR g
ENCODING 103
SWIDTH 696 0
DWIDTH 8 0
BBX 6 8 1 -2
BITMAP
7c
cc
cc
cc
cc
7c
0c
78
ENDCHAR
STARTCHAR h
ENCODING 104
SWIDTH 693 0
DWIDTH 8 0
BBX 6 8 1 0
BITMAP
c0
c0
f8
cc
cc
cc
cc
cc
ENDCHAR
STARTCHAR i
ENCODING 105
SWIDTH 361 0
DWIDTH 4 0
BBX 2 8 1 0
BITMAP
c0
00
c0
c0
c0
c0
c0
c0
ENDCHAR
STARTCHAR j
ENCODING 106
SWIDTH 361 0
DWIDTH 4 0
BBX 4 10 0 -2
BITMAP
30
00
30
30
30
30
30
30
30
f0
ENDCHAR
STARTCHAR k
ENCODING 107
SWIDTH 681 0
DWIDTH 7 0
BBX 6 8 1 0
BITMAP
c0
c0
c8
d0
d0
f0
d8
dc
ENDCHAR
STARTCHAR l
ENCODING 108
SWIDTH 361 0
DWIDTH 4 0
BBX 2 8 1 0
BITMAP
c0
c0
c0
c0
c0
c0
c0
c0
ENDCHAR
STARTCHAR m
ENCODING 109
SWIDTH 1006 0
DWIDTH 11 0
BBX 10 6 1 0
BITMAP
ffc0
ccc0
ccc0
ccc0
ccc0
ccc0
ENDCHAR
STARTCHAR n
ENCODING 110
SWIDTH 693 0
DWIDTH 8 0
BBX 6 6 1 0
BITMAP
f8
cc
cc
cc
cc
cc
ENDCHAR
STARTCHAR o
ENCODING 111
SWIDTH 675 0
DWIDTH 7 0
BBX 7 6 0 0
BITMAP
7c
ee
c6
c6
ee
7c
ENDCHAR
STARTCHAR p
ENCODING 112
SWIDTH 696 0
DWIDTH 8 0
BBX 6 8 1 -2
BITMAP
f8
cc
cc
cc
cc
f8
c0
c0
ENDCHAR
STARTCHAR q
ENCODING 113
SWIDTH 696 0
DWIDTH 8 0
BBX 6 8 1 -2
BITMAP
7c
cc
cc
cc
cc
7c
0c
0c
ENDCHAR
STARTCHAR r
ENCODING 114
SWIDTH 500 0
DWIDTH 5 0
BBX 4 6 1 0
BITMAP
d0
f0
c0
c0
c0
c0
ENDCHAR
STARTCHAR s
ENCODING 115
SWIDTH 622 0
DWIDTH 7 0
BBX 5 6 1 0
BITMAP
f8
c0
f0
78
18
f0
ENDCHAR
STARTCHAR t
ENCODING 116
SWIDTH 436 0
DWIDTH 5 0
BBX 4 8 0 0
BITMAP
60
60
f0
60
60
60
60
70
ENDCHAR
STARTCHAR u
ENCODING 117
SWIDTH 693 0
DWIDTH 8 0
BBX 6 6 1 0
BITMAP
cc
cc
cc
cc
cc
7c
ENDCHAR
STARTCHAR v
ENCODING 118
SWIDTH 663 0
DWIDTH 7 0
BBX 7 6 0 0
BITMAP
c6
64
64
38
38
38
ENDCHAR
STARTCHAR w
ENCODING 119
SWIDTH 885 0
DWIDTH 10 0
BBX 9 6 0 0
BITMAP
cc80
cd00
7500
7500
7700
6600
ENDCHAR
STARTCHAR x
ENCODING 120
SWIDTH 568 0
DWIDTH 6 0
BBX 6 6 0 0
BITMAP
ec
68
30
38
58
dc
ENDCHAR
STARTCHAR y
ENCODING 121
SWIDTH 645 0
DWIDTH 7 0
BBX 7 8 0 -2
BITMAP
c6
64
6c
38
38
30
30
60
ENDCHAR
STARTCHAR z
ENCODING 122
SWIDTH 608 0
DWIDTH 7 0
BBX 6 6 0 0
BITMAP
fc
1c
38
70
e0
fc
ENDCHAR
STARTCHAR braceleft
ENCODING 123
SWIDTH 386 0
DWIDTH 4 0
BBX 3 10 1 -2
BITMAP
20
60
60
60
40
c0
60
60
60
60
ENDCHAR
STARTCHAR bar
ENCODING 124
SWIDTH 265 0
DWIDTH 3 0
BBX 1 10 1 -2
BITMAP
80
80
80
80
80
80
80
80
80
80
ENDCHAR
STARTCHAR braceright
ENCODING 125
SWIDTH 386 0
DWIDTH 4 0
BBX 3 10 1 -2
BITMAP
80
c0
c0
c0
40
60
c0
c0
c0
c0
ENDCHAR
STARTCHAR asciitilde
ENCODING 126
SWIDTH 687 0
DWIDTH 8 0
BBX 6 3 1 2
BITMAP
64
b4
98
ENDCHAR
STARTCHAR nobreakspace
ENCODING 160
SWIDTH 343 0
DWIDTH 4 0
BBX 1 1 0 0
BITMAP
00
ENDCHAR
STARTCHAR Aogonek
ENCODING 161
SWIDTH 773 0
DWIDTH 8 0
BBX 8 9 0 -1
BITMAP
18
1c
2c
2c
66
7e
46
83
18
ENDCHAR
STARTCHAR breve
ENCODING 162
SWIDTH 675 0
DWIDTH 7 0
BBX 4 1 2 7
BITMAP
f0
ENDCHAR
STARTCHAR Lstroke
ENCODING 163
SWIDTH 620 0
DWIDTH 7 0
BBX 7 8 0 0
BITMAP
60
60
70
70
e0
e0
60
7e
ENDCHAR
STARTCHAR currency
ENCODING 164
SWIDTH 687 0
DWIDTH 8 0
BBX 7 8 0 0
BITMAP
82
44
7c
44
44
44
7c
82
ENDCHAR
STARTCHAR Lcaron
ENCODING 165
SWIDTH 620 0
DWIDTH 7 0
BBX 6 9 1 0
BITMAP
18
d8
c8
d0
c0
c0
c0
c0
fc
ENDCHAR
STARTCHAR Sacute
ENCODING 166
SWIDTH 594 0
DWIDTH 7 0
BBX 6 10 0 0
BITMAP
70
00
78
c0
e0
f0
3c
0c
0c
f8
ENDCHAR
STARTCHAR section
ENCODING 167
SWIDTH 693 0
DWIDTH 8 0
BBX 6 10 1 -2
BITMAP
7c
c0
f0
7c
8c
e4
f8
3c
0c
f8
ENDCHAR
STARTCHAR diaeresis
ENCODING 168
SWIDTH 675 0
DWIDTH 7 0
BBX 4 1 2 7
BITMAP
90
ENDCHAR
STARTCHAR Scaron
ENCODING 169
SWIDTH 594 0
DWIDTH 7 0
BBX 6 10 0 0
BITMAP
78
00
78
c0
e0
f0
3c
0c
0c
f8
ENDCHAR
STARTCHAR Scedilla
ENCODING 170
SWIDTH 594 0
DWIDTH 7 0
BBX 6 10 0 -2
BITMAP
78
c0
e0
f0
3c
0c
0c
f8
30
30
ENDCHAR
STARTCHAR Tcaron
ENCODING 171
SWIDTH 735 0
DWIDTH 8 0
BBX 8 10 0 0
BITMAP
3c
00
ff
18
18
18
18
18
18
18
ENDCHAR
STARTCHAR Zacute
ENCODING 172
SWIDTH 675 0
DWIDTH 7 0
BBX 6 10 1 0
BITMAP
70
00
fc
1c
18
38
70
60
e0
fc
ENDCHAR
STARTCHAR hyphen
ENCODING 173
SWIDTH 289 0
DWIDTH 3 0
BBX 2 1 1 3
BITMAP
c0
ENDCHAR
STARTCHAR Zcaron
ENCODING 174
SWIDTH 675 0
DWIDTH 7 0
BBX 6 10 1 0
BITMAP
78
00
fc
1c
18
38
70
60
e0
fc
ENDCHAR
STARTCHAR Zabovedot
ENCODING 175
SWIDTH 675 0
DWIDTH 7 0
BBX 6 10 1 0
BITMAP
30
00
fc
1c
18
38
70
60
e0
fc
ENDCHAR
STARTCHAR degree
ENCODING 176
SWIDTH 241 0
DWIDTH 3 0
BBX 3 2 1 6
BITMAP
e0
60
ENDCHAR
STARTCHAR aogonek
ENCODING 177
SWIDTH 623 0
DWIDTH 7 0
BBX 6 7 0 -1
BITMAP
70
58
f8
d8
d8
6c
30
ENDCHAR
STARTCHAR ogonek
ENCODING 178
SWIDTH 675 0
DWIDTH 7 0
BBX 2 1 3 -2
BITMAP
c0
ENDCHAR
STARTCHAR lstroke
ENCODING 179
SWIDTH 361 0
DWIDTH 4 0
BBX 4 8 0 0
BITMAP
60
60
70
70
e0
e0
60
60
ENDCHAR
STARTCHAR acute
ENCODING 180
SWIDTH 675 0
DWIDTH 7 0
BBX 3 1 3 7
BITMAP
e0
ENDCHAR
STARTCHAR lcaron
ENCODING 181
SWIDTH 630 0
DWIDTH 7 0
BBX 5 9 1 0
BITMAP
18
d8
c8
d0
c0
c0
c0
c0
c0
ENDCHAR
STARTCHAR sacute
ENCODING 182
SWIDTH 622 0
DWIDTH 7 0
BBX 5 8 1 0
BITMAP
70
00
f8
c0
f0
78
18
f0
ENDCHAR
STARTCHAR caron
ENCODING 183
SWIDTH 675 0
DWIDTH 7 0
BBX 4 1 2 7
BITMAP
f0
ENDCHAR
STARTCHAR cedilla
ENCODING 184
SWIDTH 675 0
DWIDTH 7 0
BBX 2 2 3 -2
BITMAP
c0
c0
ENDCHAR
STARTCHAR scaron
ENCODING 185
SWIDTH 622 0
DWIDTH 7 0
BBX 5 8 1 0
BITMAP
78
00
f8
c0
f0
78
18
f0
ENDCHAR
STARTCHAR scedilla
ENCODING 186
SWIDTH 622 0
DWIDTH 7 0
BBX 5 8 1 -2
BITMAP
f8
c0
f0
78
18
f0
30
30
ENDCHAR
STARTCHAR tcaron
ENCODING 187
SWIDTH 630 0
DWIDTH 7 0
BBX 6 11 0 0
BITMAP
0c
0c
04
68
60
f0
60
60
60
60
70
ENDCHAR
STARTCHAR zacute
ENCODING 188
SWIDTH 608 0
DWIDTH 7 0
BBX 6 8 0 0
BITMAP
70
00
fc
1c
38
70
e0
fc
ENDCHAR
STARTCHAR doubleacute
ENCODING 189
SWIDTH 675 0
DWIDTH 7 0
BBX 4 1 2 7
BITMAP
f0
ENDCHAR
STARTCHAR zcaron
ENCODING 190
SWIDTH 608 0
DWIDTH 7 0
BBX 6 8 0 0
BITMAP
78
00
fc
1c
38
70
e0
fc
ENDCHAR
STARTCHAR zabovedot
ENCODING 191
SWIDTH 608 0
DWIDTH 7 0
BBX 6 8 0 0
BITMAP
30
00
fc
1c
38
70
e0
fc
ENDCHAR
STARTCHAR Racute
ENCODING 192
SWIDTH 734 0
DWIDTH 8 0
BBX 7 10 1 0
BITMAP
70
00
f8
cc
cc
d8
f8
d8
cc
ce
ENDCHAR
STARTCHAR Aacute
ENCODING 193
SWIDTH 773 0
DWIDTH 8 0
BBX 8 9 0 0
BITMAP
1c
18
1c
2c
2c
66
7e
46
83
ENDCHAR
STARTCHAR Acircumflex
ENCODING 194
SWIDTH 773 0
DWIDTH 8 0
BBX 8 9 0 0
BITMAP
3c
18
1c
2c
2c
66
7e
46
83
ENDCHAR
STARTCHAR Abreve
ENCODING 195
SWIDTH 773 0
DWIDTH 8 0
BBX 8 10 0 0
BITMAP
1e
00
18
1c
2c
2c
66
7e
46
83
ENDCHAR
STARTCHAR Adiaeresis
ENCODING 196
SWIDTH 773 0
DWIDTH 8 0
BBX 8 9 0 0
BITMAP
24
18
1c
2c
2c
66
7e
46
83
ENDCHAR
STARTCHAR Lacute
ENCODING 197
SWIDTH 620 0
DWIDTH 7 0
BBX 7 10 0 0
BITMAP
e0
00
60
60
60
60
60
60
60
7e
ENDCHAR
STARTCHAR Cacute
ENCODING 198
SWIDTH 726 0
DWIDTH 8 0
BBX 7 10 1 0
BITMAP
38
00
3e
60
c0
c0
c0
c0
60
3e
ENDCHAR
STARTCHAR Ccedilla
ENCODING 199
SWIDTH 726 0
DWIDTH 8 0
BBX 7 10 1 -2
BITMAP
3e
60
c0
c0
c0
c0
60
3e
10
18
ENDCHAR
STARTCHAR Ccaron
ENCODING 200
SWIDTH 726 0
DWIDTH 8 0
BBX 7 10 1 0
BITMAP
3c
00
3e
60
c0
c0
c0
c0
60
3e
ENDCHAR
STARTCHAR Eacute
ENCODING 201
SWIDTH 645 0
DWIDTH 7 0
BBX 6 9 1 0
BITMAP
10
fc
c0
c0
f8
c0
c0
c0
fc
ENDCHAR
STARTCHAR Eogonek
ENCODING 202
SWIDTH 645 0
DWIDTH 7 0
BBX 6 9 1 -1
BITMAP
fc
c0
c0
f8
c0
c0
c0
fc
30
ENDCHAR
STARTCHAR Ediaeresis
ENCODING 203
SWIDTH 645 0
DWIDTH 7 0
BBX 6 9 1 0
BITMAP
48
fc
c0
c0
f8
c0
c0
c0
fc
ENDCHAR
STARTCHAR Ecaron
ENCODING 204
SWIDTH 645 0
DWIDTH 7 0
BBX 6 10 1 0
BITMAP
78
00
fc
c0
c0
f8
c0
c0
c0
fc
ENDCHAR
STARTCHAR Iacute
ENCODING 205
SWIDTH 361 0
DWIDTH 4 0
BBX 3 9 1 0
BITMAP
e0
c0
c0
c0
c0
c0
c0
c0
c0
ENDCHAR
STARTCHAR Icircumflex
ENCODING 206
SWIDTH 361 0
DWIDTH 4 0
BBX 4 9 2 0
BITMAP
f0
60
60
60
60
60
60
60
60
ENDCHAR
STARTCHAR Dcaron
ENCODING 207
SWIDTH 819 0
DWIDTH 9 0
BBX 8 10 1 0
BITMAP
3c
00
fc
c6
c3
c3
c3
c3
c6
fc
ENDCHAR
STARTCHAR Dstroke
ENCODING 208
SWIDTH 819 0
DWIDTH 9 0
BBX 9 8 0 0
BITMAP
7e00
6300
6180
f980
6180
6180
6300
7e00
ENDCHAR
STARTCHAR Nacute
ENCODING 209
SWIDTH 783 0
DWIDTH 9 0
BBX 7 10 1 0
BITMAP
38
00
c2
e2
f2
b2
9a
9e
8e
86
ENDCHAR
STARTCHAR Ncaron
ENCODING 210
SWIDTH 783 0
DWIDTH 9 0
BBX 7 10 1 0
BITMAP
3c
00
c2
e2
f2
b2
9a
9e
8e
86
ENDCHAR
STARTCHAR Oacute
ENCODING 211
SWIDTH 855 0
DWIDTH 9 0
BBX 9 9 0 0
BITMAP
0400
3e00
6300
c180
c180
c180
c180
6300
3e00
ENDCHAR
STARTCHAR Ocircumflex
ENCODING 212
SWIDTH 855 0
DWIDTH 9 0
BBX 9 9 0 0
BITMAP
0c00
3e00
6300
c180
c180
c180
c180
6300
3e00
ENDCHAR
STARTCHAR Odoubleacute
ENCODING 213
SWIDTH 855 0
DWIDTH 9 0
BBX 9 10 0 0
BITMAP
1e00
0000
3e00
6300
c180
c180
c180
c180
6300
3e00
ENDCHAR
STARTCHAR Odiaeresis
ENCODING 214
SWIDTH 855 0
DWIDTH 9 0
BBX 9 9 0 0
BITMAP
1200
3e00
6300
c180
c180
c180
c180
6300
3e00
ENDCHAR
STARTCHAR multiply
ENCODING 215
SWIDTH 687 0
DWIDTH 8 0
BBX 6 7 1 0
BITMAP
84
48
38
30
38
48
84
ENDCHAR
STARTCHAR Rcaron
ENCODING 216
SWIDTH 734 0
DWIDTH 8 0
BBX 7 10 1 0
BITMAP
78
00
f8
cc
cc
d8
f8
d8
cc
ce
ENDCHAR
STARTCHAR Uring
ENCODING 217
SWIDTH 783 0
DWIDTH 9 0
BBX 7 10 1 0
BITMAP
18
00
c6
c6
c6
c6
c6
c6
c6
7c
ENDCHAR
STARTCHAR Uacute
ENCODING 218
SWIDTH 783 0
DWIDTH 9 0
BBX 7 9 1 0
BITMAP
1c
c6
c6
c6
c6
c6
c6
c6
7c
ENDCHAR
STARTCHAR Udoubleacute
ENCODING 219
SWIDTH 783 0
DWIDTH 9 0
BBX 7 10 1 0
BITMAP
3c
00
c6
c6
c6
c6
c6
c6
c6
7c
ENDCHAR
STARTCHAR Udiaeresis
ENCODING 220
SWIDTH 783 0
DWIDTH 9 0
BBX 7 9 1 0
BITMAP
24
c6
c6
c6
c6
c6
c6
c6
7c
ENDCHAR
STARTCHAR Yacute
ENCODING 221
SWIDTH 738 0
DWIDTH 8 0
BBX 8 9 0 0
BITMAP
1c
e3
62
34
3c
18
18
18
18
ENDCHAR
STARTCHAR Tcedilla
ENCODING 222
SWIDTH 735 0
DWIDTH 8 0
BBX 8 10 0 -2
BITMAP
ff
18
18
18
18
18
18
18
18
18
ENDCHAR
STARTCHAR ssharp
ENCODING 223
SWIDTH 724 0
DWIDTH 8 0
BBX 7 8 1 0
BITMAP
78
c8
d8
d0
dc
ce
c6
dc
ENDCHAR
STARTCHAR racute
ENCODING 224
SWIDTH 500 0
DWIDTH 5 0
BBX 4 8 1 0
BITMAP
e0
00
d0
f0
c0
c0
c0
c0
ENDCHAR
STARTCHAR aacute
ENCODING 225
SWIDTH 623 0
DWIDTH 7 0
BBX 6 7 0 0
BITMAP
18
70
58
f8
d8
d8
6c
ENDCHAR
STARTCHAR acircumflex
ENCODING 226
SWIDTH 623 0
DWIDTH 7 0
BBX 6 7 0 0
BITMAP
38
70
58
f8
d8
d8
6c
ENDCHAR
STARTCHAR abreve
ENCODING 227
SWIDTH 623 0
DWIDTH 7 0
BBX 6 8 0 0
BITMAP
78
00
70
58
f8
d8
d8
6c
ENDCHAR
STARTCHAR adiaeresis
ENCODING 228
SWIDTH 623 0
DWIDTH 7 0
BBX 6 7 0 0
BITMAP
48
70
58
f8
d8
d8
6c
ENDCHAR
STARTCHAR lacute
ENCODING 229
SWIDTH 361 0
DWIDTH 4 0
BBX 3 10 0 0
BITMAP
e0
00
60
60
60
60
60
60
60
60
ENDCHAR
STARTCHAR cacute
ENCODING 230
SWIDTH 545 0
DWIDTH 6 0
BBX 5 8 1 0
BITMAP
70
00
78
c0
c0
c0
e0
78
ENDCHAR
STARTCHAR ccedilla
ENCODING 231
SWIDTH 545 0
DWIDTH 6 0
BBX 5 8 1 -2
BITMAP
78
c0
c0
c0
e0
78
20
30
ENDCHAR
STARTCHAR ccaron
ENCODING 232
SWIDTH 545 0
DWIDTH 6 0
BBX 5 8 1 0
BITMAP
78
00
78
c0
c0
c0
e0
78
ENDCHAR
STARTCHAR eacute
ENCODING 233
SWIDTH 614 0
DWIDTH 7 0
BBX 6 7 0 0
BITMAP
10
78
cc
cc
fc
c0
7c
ENDCHAR
STARTCHAR eogonek
ENCODING 234
SWIDTH 614 0
DWIDTH 7 0
BBX 6 7 0 -1
BITMAP
78
cc
cc
fc
c0
7c
30
ENDCHAR
STARTCHAR ediaeresis
ENCODING 235
SWIDTH 614 0
DWIDTH 7 0
BBX 6 7 0 0
BITMAP
48
78
cc
cc
fc
c0
7c
ENDCHAR
STARTCHAR ecaron
ENCODING 236
SWIDTH 614 0
DWIDTH 7 0
BBX 6 8 0 0
BITMAP
78
00
78
cc
cc
fc
c0
7c
ENDCHAR
STARTCHAR iacute
ENCODING 237
SWIDTH 361 0
DWIDTH 4 0
BBX 3 7 1 0
BITMAP
e0
c0
c0
c0
c0
c0
c0
ENDCHAR
STARTCHAR icircumflex
ENCODING 238
SWIDTH 361 0
DWIDTH 4 0
BBX 4 7 2 0
BITMAP
f0
60
60
60
60
60
60
ENDCHAR
STARTCHAR dcaron
ENCODING 239
SWIDTH 990 0
DWIDTH 11 0
BBX 9 9 1 0
BITMAP
0180
0d80
0c80
7d00
cc00
cc00
cc00
cc00
7c00
ENDCHAR
STARTCHAR dstroke
ENCODING 240
SWIDTH 900 0
DWIDTH 10 0
BBX 8 8 1 0
BITMAP
3f
0c
7c
cc
cc
cc
cc
7c
ENDCHAR
STARTCHAR nacute
ENCODING 241
SWIDTH 693 0
DWIDTH 8 0
BBX 6 8 1 0
BITMAP
70
00
f8
cc
cc
cc
cc
cc
ENDCHAR
STARTCHAR ncaron
ENCODING 242
SWIDTH 693 0
DWIDTH 8 0
BBX 6 8 1 0
BITMAP
78
00
f8
cc
cc
cc
cc
cc
ENDCHAR
STARTCHAR oacute
ENCODING 243
SWIDTH 675 0
DWIDTH 7 0
BBX 7 7 0 0
BITMAP
10
7c
ee
c6
c6
ee
7c
ENDCHAR
STARTCHAR ocircumflex
ENCODING 244
SWIDTH 675 0
DWIDTH 7 0
BBX 7 7 0 0
BITMAP
18
7c
ee
c6
c6
ee
7c
ENDCHAR
STARTCHAR odoubleacute
ENCODING 245
SWIDTH 675 0
DWIDTH 7 0
BBX 7 8 0 0
BITMAP
3c
00
7c
ee
c6
c6
ee
7c
ENDCHAR
STARTCHAR odiaeresis
ENCODING 246
SWIDTH 675 0
DWIDTH 7 0
BBX 7 7 0 0
BITMAP
24
7c
ee
c6
c6
ee
7c
ENDCHAR
STARTCHAR division
ENCODING 247
SWIDTH 687 0
DWIDTH 8 0
BBX 6 7 1 0
BITMAP
20
00
00
fc
00
00
20
ENDCHAR
STARTCHAR rcaron
ENCODING 248
SWIDTH 500 0
DWIDTH 5 0
BBX 4 8 1 0
BITMAP
f0
00
d0
f0
c0
c0
c0
c0
ENDCHAR
STARTCHAR uring
ENCODING 249
SWIDTH 693 0
DWIDTH 8 0
BBX 6 8 1 0
BITMAP
30
00
cc
cc
cc
cc
cc
7c
ENDCHAR
STARTCHAR uacute
ENCODING 250
SWIDTH 693 0
DWIDTH 8 0
BBX 6 7 1 0
BITMAP
38
cc
cc
cc
cc
cc
7c
ENDCHAR
STARTCHAR udoubleacute
ENCODING 251
SWIDTH 693 0
DWIDTH 8 0
BBX 6 8 1 0
BITMAP
78
00
cc
cc
cc
cc
cc
7c
ENDCHAR
STARTCHAR udiaeresis
ENCODING 252
SWIDTH 693 0
DWIDTH 8 0
BBX 6 7 1 0
BITMAP
48
cc
cc
cc
cc
cc
7c
ENDCHAR
STARTCHAR yacute
ENCODING 253
SWIDTH 645 0
DWIDTH 7 0
BBX 7 9 0 -2
BITMAP
38
c6
64
6c
38
38
30
30
60
ENDCHAR
STARTCHAR tcedilla
ENCODING 254
SWIDTH 436 0
DWIDTH 5 0
BBX 4 10 0 -2
BITMAP
60
60
f0
60
60
60
60
70
60
60
ENDCHAR
STARTCHAR abovedot
ENCODING 255
SWIDTH 675 0
DWIDTH 7 0
BBX 2 1 3 7
BITMAP
c0
ENDCHAR
ENDFONT
